<svg id="SvgjsSvg1001" width="1184.8958333333333" height="297.2916666666667" xmlns="http://www.w3.org/2000/svg" version="1.1" xmlns:xlink="http://www.w3.org/1999/xlink" xmlns:svgjs="http://svgjs.com/svgjs"><defs id="SvgjsDefs1002"><marker id="SvgjsMarker1037" markerWidth="14" markerHeight="10" refX="10" refY="5" viewBox="0 0 14 10" orient="auto" markerUnits="userSpaceOnUse" stroke-dasharray="0,0"><path id="SvgjsPath1038" d="M0,0 L14,5 L0,10 L0,0" fill="#323232" stroke="#323232" stroke-width="1"></path></marker><marker id="SvgjsMarker1087" markerWidth="14" markerHeight="10" refX="10" refY="5" viewBox="0 0 14 10" orient="auto" markerUnits="userSpaceOnUse" stroke-dasharray="0,0"><path id="SvgjsPath1088" d="M0,0 L14,5 L0,10 L0,0" fill="#323232" stroke="#323232" stroke-width="1"></path></marker><marker id="SvgjsMarker1095" markerWidth="14" markerHeight="10" refX="10" refY="5" viewBox="0 0 14 10" orient="auto" markerUnits="userSpaceOnUse" stroke-dasharray="0,0"><path id="SvgjsPath1096" d="M0,0 L14,5 L0,10 L0,0" fill="#323232" stroke="#323232" stroke-width="1"></path></marker><marker id="SvgjsMarker1103" markerWidth="14" markerHeight="10" refX="10" refY="5" viewBox="0 0 14 10" orient="auto" markerUnits="userSpaceOnUse" stroke-dasharray="0,0"><path id="SvgjsPath1104" d="M0,0 L14,5 L0,10 L0,0" fill="#323232" stroke="#323232" stroke-width="1"></path></marker><marker id="SvgjsMarker1111" markerWidth="14" markerHeight="10" refX="10" refY="5" viewBox="0 0 14 10" orient="auto" markerUnits="userSpaceOnUse" stroke-dasharray="0,0"><path id="SvgjsPath1112" d="M0,0 L14,5 L0,10 L0,0" fill="#323232" stroke="#323232" stroke-width="1"></path></marker><marker id="SvgjsMarker1119" markerWidth="14" markerHeight="10" refX="10" refY="5" viewBox="0 0 14 10" orient="auto" markerUnits="userSpaceOnUse" stroke-dasharray="0,0"><path id="SvgjsPath1120" d="M0,0 L14,5 L0,10 L0,0" fill="#323232" stroke="#323232" stroke-width="1"></path></marker><marker id="SvgjsMarker1127" markerWidth="14" markerHeight="10" refX="10" refY="5" viewBox="0 0 14 10" orient="auto" markerUnits="userSpaceOnUse" stroke-dasharray="0,0"><path id="SvgjsPath1128" d="M0,0 L14,5 L0,10 L0,0" fill="#323232" stroke="#323232" stroke-width="1"></path></marker><marker id="SvgjsMarker1135" markerWidth="14" markerHeight="10" refX="10" refY="5" viewBox="0 0 14 10" orient="auto" markerUnits="userSpaceOnUse" stroke-dasharray="0,0"><path id="SvgjsPath1136" d="M0,0 L14,5 L0,10 L0,0" fill="#323232" stroke="#323232" stroke-width="1"></path></marker><marker id="SvgjsMarker1163" markerWidth="14" markerHeight="10" refX="10" refY="5" viewBox="0 0 14 10" orient="auto" markerUnits="userSpaceOnUse" stroke-dasharray="0,0"><path id="SvgjsPath1164" d="M0,0 L14,5 L0,10 L0,0" fill="#323232" stroke="#323232" stroke-width="1"></path></marker><marker id="SvgjsMarker1171" markerWidth="14" markerHeight="10" refX="10" refY="5" viewBox="0 0 14 10" orient="auto" markerUnits="userSpaceOnUse" stroke-dasharray="0,0"><path id="SvgjsPath1172" d="M0,0 L14,5 L0,10 L0,0" fill="#323232" stroke="#323232" stroke-width="1"></path></marker><marker id="SvgjsMarker1179" markerWidth="14" markerHeight="10" refX="10" refY="5" viewBox="0 0 14 10" orient="auto" markerUnits="userSpaceOnUse" stroke-dasharray="0,0"><path id="SvgjsPath1180" d="M0,0 L14,5 L0,10 L0,0" fill="#323232" stroke="#323232" stroke-width="1"></path></marker></defs><rect id="svgbackgroundid" width="1184.8958333333333" height="297.2916666666667" fill="#ffffff"></rect><g id="SvgjsG1009" transform="translate(188.98059624565593,85.63194444444503)"><path id="SvgjsPath1010" d="M 0 4Q 0 0 4 0L 91.79166666666666 0Q 95.79166666666666 0 95.79166666666666 4L 95.79166666666666 135.9714285714286Q 95.79166666666666 139.9714285714286 91.79166666666666 139.9714285714286L 4 139.9714285714286Q 0 139.9714285714286 0 135.9714285714286Z" stroke="rgba(33,41,48,1)" stroke-width="2" fill-opacity="1" fill="#ffffff"></path><g id="SvgjsG1011"><text id="SvgjsText1012" font-family="微软雅黑" text-anchor="middle" font-size="13px" width="76px" fill="#323232" font-weight="400" align="middle" lineHeight="125%" anchor="middle" family="微软雅黑" size="13px" weight="400" font-style="" opacity="1" y="59.360714285714295" transform="rotate(0)"></text></g></g><g id="SvgjsG1013" transform="translate(188.98059624565605,143.40337301587374)"><path id="SvgjsPath1014" d="M 0 4Q 0 0 4 0L 91.79166666666666 0Q 95.79166666666666 0 95.79166666666666 4L 95.79166666666666 83.22857142857143Q 95.79166666666666 87.22857142857143 91.79166666666666 87.22857142857143L 4 87.22857142857143Q 0 87.22857142857143 0 83.22857142857143Z" stroke="rgba(33,41,48,1)" stroke-width="2" fill-opacity="1" fill="#ffffff"></path><g id="SvgjsG1015"><text id="SvgjsText1016" font-family="微软雅黑" text-anchor="middle" font-size="13px" width="76px" fill="#323232" font-weight="400" align="middle" lineHeight="125%" anchor="middle" family="微软雅黑" size="13px" weight="400" font-style="" opacity="1" y="16.489285714285714" transform="rotate(0)"><tspan id="SvgjsTspan1017" dy="16" x="48"><tspan id="SvgjsTspan1018" style="text-decoration:;">do/提示输入</tspan></tspan><tspan id="SvgjsTspan1019" dy="16" x="48"><tspan id="SvgjsTspan1020" style="text-decoration:;">信息并接收</tspan></tspan><tspan id="SvgjsTspan1021" dy="16" x="48"><tspan id="SvgjsTspan1022" style="text-decoration:;">输入</tspan></tspan></text></g></g><g id="SvgjsG1023" transform="translate(188.98059624565605,95.63194444444503)"><path id="SvgjsPath1024" d="M 0 0L 95.79166666666663 0L 95.79166666666663 37.69999999999999L 0 37.69999999999999Z" stroke="none" fill="none"></path><g id="SvgjsG1025"><text id="SvgjsText1026" font-family="微软雅黑" text-anchor="middle" font-size="13px" width="96px" fill="#323232" font-weight="400" align="middle" lineHeight="125%" anchor="middle" family="微软雅黑" size="13px" weight="400" font-style="" opacity="1" y="8.224999999999994" transform="rotate(0)"><tspan id="SvgjsTspan1027" dy="16" x="48"><tspan id="SvgjsTspan1028" style="text-decoration:;">等待输入</tspan></tspan></text></g></g><g id="SvgjsG1029" transform="translate(25.00972222222265,145.6176587301593)"><path id="SvgjsPath1030" d="M 0 10C 0 -3.3333333333333335 20 -3.3333333333333335 20 10C 20 23.333333333333332 0 23.333333333333332 0 10Z" stroke="none" fill-opacity="1" fill="#323232"></path><g id="SvgjsG1031"><text id="SvgjsText1032" font-family="微软雅黑" text-anchor="middle" font-size="13px" width="60px" fill="#323232" font-weight="400" align="middle" lineHeight="125%" anchor="middle" family="微软雅黑" size="13px" weight="400" font-style="" opacity="1" y="24.375" transform="rotate(0)"><tspan id="SvgjsTspan1033" dy="16" x="10"><tspan id="SvgjsTspan1034" style="text-decoration:;">运行程序</tspan></tspan></text></g></g><g id="SvgjsG1035"><path id="SvgjsPath1036" d="M46.00972222222259 155.6176587301593L117.09515923393951 155.6176587301593L117.09515923393951 155.52083333333394L185.5805962456564 155.52083333333394" stroke="#323232" stroke-width="2" fill="none" marker-end="url(#SvgjsMarker1037)"></path></g><g id="SvgjsG1039" transform="translate(659.2805555555542,85.6319444444448)"><path id="SvgjsPath1040" d="M 0 4Q 0 0 4 0L 91.79166666666666 0Q 95.79166666666666 0 95.79166666666666 4L 95.79166666666666 135.9714285714286Q 95.79166666666666 139.9714285714286 91.79166666666666 139.9714285714286L 4 139.9714285714286Q 0 139.9714285714286 0 135.9714285714286Z" stroke="rgba(33,41,48,1)" stroke-width="2" fill-opacity="1" fill="#ffffff"></path><g id="SvgjsG1041"><text id="SvgjsText1042" font-family="微软雅黑" text-anchor="middle" font-size="13px" width="76px" fill="#323232" font-weight="400" align="middle" lineHeight="125%" anchor="middle" family="微软雅黑" size="13px" weight="400" font-style="" opacity="1" y="59.360714285714295" transform="rotate(0)"></text></g></g><g id="SvgjsG1043" transform="translate(659.2805555555544,143.4033730158735)"><path id="SvgjsPath1044" d="M 0 4Q 0 0 4 0L 91.79166666666666 0Q 95.79166666666666 0 95.79166666666666 4L 95.79166666666666 83.22857142857143Q 95.79166666666666 87.22857142857143 91.79166666666666 87.22857142857143L 4 87.22857142857143Q 0 87.22857142857143 0 83.22857142857143Z" stroke="rgba(33,41,48,1)" stroke-width="2" fill-opacity="1" fill="#ffffff"></path><g id="SvgjsG1045"><text id="SvgjsText1046" font-family="微软雅黑" text-anchor="middle" font-size="13px" width="76px" fill="#323232" font-weight="400" align="middle" lineHeight="125%" anchor="middle" family="微软雅黑" size="13px" weight="400" font-style="" opacity="1" y="16.489285714285714" transform="rotate(0)"><tspan id="SvgjsTspan1047" dy="16" x="48"><tspan id="SvgjsTspan1048" style="text-decoration:;">do/逐渐输出</tspan></tspan><tspan id="SvgjsTspan1049" dy="16" x="48"><tspan id="SvgjsTspan1050" style="text-decoration:;">算法运行结</tspan></tspan><tspan id="SvgjsTspan1051" dy="16" x="48"><tspan id="SvgjsTspan1052" style="text-decoration:;">果</tspan></tspan></text></g></g><g id="SvgjsG1053" transform="translate(659.2805555555544,95.6319444444448)"><path id="SvgjsPath1054" d="M 0 0L 95.79166666666663 0L 95.79166666666663 37.69999999999999L 0 37.69999999999999Z" stroke="none" fill="none"></path><g id="SvgjsG1055"><text id="SvgjsText1056" font-family="微软雅黑" text-anchor="middle" font-size="13px" width="96px" fill="#323232" font-weight="400" align="middle" lineHeight="125%" anchor="middle" family="微软雅黑" size="13px" weight="400" font-style="" opacity="1" y="8.224999999999994" transform="rotate(0)"><tspan id="SvgjsTspan1057" dy="16" x="48"><tspan id="SvgjsTspan1058" style="text-decoration:;">算法输出</tspan></tspan></text></g></g><g id="SvgjsG1059" transform="translate(1139.9083333333265,143.4033730158735)"><path id="SvgjsPath1060" d="M 0 10C 0 -3.3333333333333335 20 -3.3333333333333335 20 10C 20 23.333333333333332 0 23.333333333333332 0 10Z" stroke="rgba(33,41,48,1)" stroke-width="4" fill-opacity="1" fill="#ffffff"></path><path id="SvgjsPath1061" d="M 5 10C 5 3.333333333333333 15 3.333333333333333 15 10C 15 16.666666666666668 5 16.666666666666668 5 10Z" stroke="none" fill-opacity="1" fill="#323232"></path><path id="SvgjsPath1062" d="M 0 10C 0 -3.3333333333333335 20 -3.3333333333333335 20 10C 20 23.333333333333332 0 23.333333333333332 0 10Z" stroke="none" fill="none"></path><g id="SvgjsG1063"><text id="SvgjsText1064" font-family="微软雅黑" text-anchor="middle" font-size="13px" width="60px" fill="#323232" font-weight="400" align="middle" lineHeight="125%" anchor="middle" family="微软雅黑" size="13px" weight="400" font-style="" opacity="1" y="24.375" transform="rotate(0)"><tspan id="SvgjsTspan1065" dy="16" x="10"><tspan id="SvgjsTspan1066" style="text-decoration:;">终止程序</tspan></tspan></text></g></g><g id="SvgjsG1067" transform="translate(894.4305352105046,85.63194444444457)"><path id="SvgjsPath1068" d="M 0 4Q 0 0 4 0L 91.79166666666666 0Q 95.79166666666666 0 95.79166666666666 4L 95.79166666666666 135.9714285714286Q 95.79166666666666 139.9714285714286 91.79166666666666 139.9714285714286L 4 139.9714285714286Q 0 139.9714285714286 0 135.9714285714286Z" stroke="rgba(33,41,48,1)" stroke-width="2" fill-opacity="1" fill="#ffffff"></path><g id="SvgjsG1069"><text id="SvgjsText1070" font-family="微软雅黑" text-anchor="middle" font-size="13px" width="76px" fill="#323232" font-weight="400" align="middle" lineHeight="125%" anchor="middle" family="微软雅黑" size="13px" weight="400" font-style="" opacity="1" y="59.360714285714295" transform="rotate(0)"></text></g></g><g id="SvgjsG1071" transform="translate(894.4305352105048,143.40337301587329)"><path id="SvgjsPath1072" d="M 0 4Q 0 0 4 0L 91.79166666666666 0Q 95.79166666666666 0 95.79166666666666 4L 95.79166666666666 83.22857142857143Q 95.79166666666666 87.22857142857143 91.79166666666666 87.22857142857143L 4 87.22857142857143Q 0 87.22857142857143 0 83.22857142857143Z" stroke="rgba(33,41,48,1)" stroke-width="2" fill-opacity="1" fill="#ffffff"></path><g id="SvgjsG1073"><text id="SvgjsText1074" font-family="微软雅黑" text-anchor="middle" font-size="13px" width="76px" fill="#323232" font-weight="400" align="middle" lineHeight="125%" anchor="middle" family="微软雅黑" size="13px" weight="400" font-style="" opacity="1" y="24.489285714285714" transform="rotate(0)"><tspan id="SvgjsTspan1075" dy="16" x="48"><tspan id="SvgjsTspan1076" style="text-decoration:;">do/显示算法</tspan></tspan><tspan id="SvgjsTspan1077" dy="16" x="48"><tspan id="SvgjsTspan1078" style="text-decoration:;">运行结果</tspan></tspan></text></g></g><g id="SvgjsG1079" transform="translate(894.430535210505,95.6319444444448)"><path id="SvgjsPath1080" d="M 0 0L 95.79166666666663 0L 95.79166666666663 37.69999999999999L 0 37.69999999999999Z" stroke="none" fill="none"></path><g id="SvgjsG1081"><text id="SvgjsText1082" font-family="微软雅黑" text-anchor="middle" font-size="13px" width="96px" fill="#323232" font-weight="400" align="middle" lineHeight="125%" anchor="middle" family="微软雅黑" size="13px" weight="400" font-style="" opacity="1" y="8.224999999999994" transform="rotate(0)"><tspan id="SvgjsTspan1083" dy="16" x="48"><tspan id="SvgjsTspan1084" style="text-decoration:;">输出结束</tspan></tspan></text></g></g><g id="SvgjsG1085"><path id="SvgjsPath1086" d="M942.3263685438378 84.63194444444457L942.3263685438378 25.00694444444457L236.8764295789893 25.00694444444457L236.8764295789893 82.03194444444512" stroke="#323232" stroke-width="2" fill="none" marker-end="url(#SvgjsMarker1087)"></path><rect id="SvgjsRect1089" width="26" height="16" x="577.9013990614133" y="17.00694444444457" fill="#ffffff"></rect><text id="SvgjsText1090" font-family="微软雅黑" text-anchor="middle" font-size="13px" width="26px" fill="#323232" font-weight="400" align="top" lineHeight="16px" anchor="middle" family="微软雅黑" size="13px" weight="400" font-style="" opacity="1" y="14.38194444444457" transform="rotate(0)"><tspan id="SvgjsTspan1091" dy="16" x="590.9013990614133"><tspan id="SvgjsTspan1092" style="text-decoration:;">返回</tspan></tspan></text></g><g id="SvgjsG1093"><path id="SvgjsPath1094" d="M756.0722222222212 114.48194444444471L824.751378716363 114.48194444444471L824.751378716363 114.48194444444471L890.8305352105051 114.48194444444471" stroke="#323232" stroke-width="2" fill="none" marker-end="url(#SvgjsMarker1095)"></path><rect id="SvgjsRect1097" width="78" height="16" x="784.4513787163631" y="106.48194444444471" fill="#ffffff"></rect><text id="SvgjsText1098" font-family="微软雅黑" text-anchor="middle" font-size="13px" width="78px" fill="#323232" font-weight="400" align="top" lineHeight="16px" anchor="middle" family="微软雅黑" size="13px" weight="400" font-style="" opacity="1" y="103.85694444444471" transform="rotate(0)"><tspan id="SvgjsTspan1099" dy="16" x="823.4513787163631"><tspan id="SvgjsTspan1100" style="text-decoration:;">手动终止输出</tspan></tspan></text></g><g id="SvgjsG1101"><path id="SvgjsPath1102" d="M756 194.96527777777783L824.7222222222222 194.96527777777783L824.7222222222222 194.96527777777783L890.8444444444444 194.96527777777783" stroke="#323232" stroke-width="2" fill="none" marker-end="url(#SvgjsMarker1103)"></path><rect id="SvgjsRect1105" width="52" height="16" x="797.4222222222222" y="186.96527777777783" fill="#ffffff"></rect><text id="SvgjsText1106" font-family="微软雅黑" text-anchor="middle" font-size="13px" width="52px" fill="#323232" font-weight="400" align="top" lineHeight="16px" anchor="middle" family="微软雅黑" size="13px" weight="400" font-style="" opacity="1" y="184.34027777777783" transform="rotate(0)"><tspan id="SvgjsTspan1107" dy="16" x="823.4222222222222"><tspan id="SvgjsTspan1108" style="text-decoration:;">输出完成</tspan></tspan></text></g><g id="SvgjsG1109"><path id="SvgjsPath1110" d="M991 154.96527777777783L1064.9541666666632 154.96527777777783L1064.9541666666632 152.75099206349228L1136.3083333333266 152.75099206349228" stroke="#323232" stroke-width="2" fill="none" marker-end="url(#SvgjsMarker1111)"></path><rect id="SvgjsRect1113" width="26" height="16" x="1051.7613095238062" y="146.96527777777783" fill="#ffffff"></rect><text id="SvgjsText1114" font-family="微软雅黑" text-anchor="middle" font-size="13px" width="26px" fill="#323232" font-weight="400" align="top" lineHeight="16px" anchor="middle" family="微软雅黑" size="13px" weight="400" font-style="" opacity="1" y="144.34027777777783" transform="rotate(0)"><tspan id="SvgjsTspan1115" dy="16" x="1064.7613095238062"><tspan id="SvgjsTspan1116" style="text-decoration:;">退出</tspan></tspan></text></g><g id="SvgjsG1117"><path id="SvgjsPath1118" d="M707.1763888888875 84.6319444444448L707.1763888888875 40.0069444444448L236.8764295789893 40.0069444444448L236.8764295789893 82.03194444444534" stroke="#323232" stroke-width="2" fill="none" marker-end="url(#SvgjsMarker1119)"></path><rect id="SvgjsRect1121" width="26" height="16" x="460.3264092339381" y="32.0069444444448" fill="#ffffff"></rect><text id="SvgjsText1122" font-family="微软雅黑" text-anchor="middle" font-size="13px" width="26px" fill="#323232" font-weight="400" align="top" lineHeight="16px" anchor="middle" family="微软雅黑" size="13px" weight="400" font-style="" opacity="1" y="29.381944444444798" transform="rotate(0)"><tspan id="SvgjsTspan1123" dy="16" x="473.3264092339381"><tspan id="SvgjsTspan1124" style="text-decoration:;">返回</tspan></tspan></text></g><g id="SvgjsG1125"><path id="SvgjsPath1126" d="M707.1763888888877 231.63194444444503L707.1763888888877 254.38194444444503L1109.9083333333265 254.38194444444503L1109.9083333333265 153.4033730158735L1136.3083333333266 153.4033730158735" stroke="#323232" stroke-width="2" fill="none" marker-end="url(#SvgjsMarker1127)"></path><rect id="SvgjsRect1129" width="26" height="16" x="947.8566468253928" y="246.38194444444503" fill="#ffffff"></rect><text id="SvgjsText1130" font-family="微软雅黑" text-anchor="middle" font-size="13px" width="26px" fill="#323232" font-weight="400" align="top" lineHeight="16px" anchor="middle" family="微软雅黑" size="13px" weight="400" font-style="" opacity="1" y="243.75694444444503" transform="rotate(0)"><tspan id="SvgjsTspan1131" dy="16" x="960.8566468253928"><tspan id="SvgjsTspan1132" style="text-decoration:;">退出</tspan></tspan></text></g><g id="SvgjsG1133"><path id="SvgjsPath1134" d="M236.87642957898942 231.63194444444525L236.87642957898942 271.88194444444525L1109.9083333333265 271.88194444444525L1109.9083333333265 153.4033730158735L1136.3083333333266 153.4033730158735" stroke="#323232" stroke-width="2" fill="none" marker-end="url(#SvgjsMarker1135)"></path><rect id="SvgjsRect1137" width="26" height="16" x="712.7066671704439" y="263.88194444444525" fill="#ffffff"></rect><text id="SvgjsText1138" font-family="微软雅黑" text-anchor="middle" font-size="13px" width="26px" fill="#323232" font-weight="400" align="top" lineHeight="16px" anchor="middle" family="微软雅黑" size="13px" weight="400" font-style="" opacity="1" y="261.25694444444525" transform="rotate(0)"><tspan id="SvgjsTspan1139" dy="16" x="725.7066671704439"><tspan id="SvgjsTspan1140" style="text-decoration:;">退出</tspan></tspan></text></g><g id="SvgjsG1141" transform="translate(424.1305759006047,85.6319444444448)"><path id="SvgjsPath1142" d="M 0 4Q 0 0 4 0L 91.79166666666666 0Q 95.79166666666666 0 95.79166666666666 4L 95.79166666666666 135.9714285714286Q 95.79166666666666 139.9714285714286 91.79166666666666 139.9714285714286L 4 139.9714285714286Q 0 139.9714285714286 0 135.9714285714286Z" stroke="rgba(33,41,48,1)" stroke-width="2" fill-opacity="1" fill="#ffffff"></path><g id="SvgjsG1143"><text id="SvgjsText1144" font-family="微软雅黑" text-anchor="middle" font-size="13px" width="76px" fill="#323232" font-weight="400" align="middle" lineHeight="125%" anchor="middle" family="微软雅黑" size="13px" weight="400" font-style="" opacity="1" y="59.360714285714295" transform="rotate(0)"></text></g></g><g id="SvgjsG1145" transform="translate(424.1305759006048,143.40337301587374)"><path id="SvgjsPath1146" d="M 0 4Q 0 0 4 0L 91.79166666666666 0Q 95.79166666666666 0 95.79166666666666 4L 95.79166666666666 83.22857142857143Q 95.79166666666666 87.22857142857143 91.79166666666666 87.22857142857143L 4 87.22857142857143Q 0 87.22857142857143 0 83.22857142857143Z" stroke="rgba(33,41,48,1)" stroke-width="2" fill-opacity="1" fill="#ffffff"></path><g id="SvgjsG1147"><text id="SvgjsText1148" font-family="微软雅黑" text-anchor="middle" font-size="13px" width="76px" fill="#323232" font-weight="400" align="middle" lineHeight="125%" anchor="middle" family="微软雅黑" size="13px" weight="400" font-style="" opacity="1" y="16.489285714285714" transform="rotate(0)"><tspan id="SvgjsTspan1149" dy="16" x="48"><tspan id="SvgjsTspan1150" style="text-decoration:;">do/生成并显</tspan></tspan><tspan id="SvgjsTspan1151" dy="16" x="48"><tspan id="SvgjsTspan1152" style="text-decoration:;">示各种资源</tspan></tspan><tspan id="SvgjsTspan1153" dy="16" x="48"><tspan id="SvgjsTspan1154" style="text-decoration:;">信息</tspan></tspan></text></g></g><g id="SvgjsG1155" transform="translate(424.1305759006048,95.6319444444448)"><path id="SvgjsPath1156" d="M 0 0L 95.79166666666663 0L 95.79166666666663 37.69999999999999L 0 37.69999999999999Z" stroke="none" fill="none"></path><g id="SvgjsG1157"><text id="SvgjsText1158" font-family="微软雅黑" text-anchor="middle" font-size="13px" width="96px" fill="#323232" font-weight="400" align="middle" lineHeight="125%" anchor="middle" family="微软雅黑" size="13px" weight="400" font-style="" opacity="1" y="8.224999999999994" transform="rotate(0)"><tspan id="SvgjsTspan1159" dy="16" x="48"><tspan id="SvgjsTspan1160" style="text-decoration:;">生成资源信息</tspan></tspan></text></g></g><g id="SvgjsG1161"><path id="SvgjsPath1162" d="M285.51388888888886 155.52083333333326L354.51388888888886 155.52083333333326L354.51388888888886 155.52083333333326L420.91388888888883 155.52083333333326" stroke="#323232" stroke-width="2" fill="none" marker-end="url(#SvgjsMarker1163)"></path><rect id="SvgjsRect1165" width="78" height="16" x="314.21388888888885" y="147.52083333333326" fill="#ffffff"></rect><text id="SvgjsText1166" font-family="微软雅黑" text-anchor="middle" font-size="13px" width="78px" fill="#323232" font-weight="400" align="top" lineHeight="16px" anchor="middle" family="微软雅黑" size="13px" weight="400" font-style="" opacity="1" y="144.89583333333326" transform="rotate(0)"><tspan id="SvgjsTspan1167" dy="16" x="353.21388888888885"><tspan id="SvgjsTspan1168" style="text-decoration:;">开始随机生成</tspan></tspan></text></g><g id="SvgjsG1169"><path id="SvgjsPath1170" d="M520.4444444444443 154.96527777777783L589.4444444444443 154.96527777777783L589.4444444444443 154.96527777777783L655.8444444444444 154.96527777777783" stroke="#323232" stroke-width="2" fill="none" marker-end="url(#SvgjsMarker1171)"></path><rect id="SvgjsRect1173" width="52" height="16" x="562.1444444444444" y="146.96527777777783" fill="#ffffff"></rect><text id="SvgjsText1174" font-family="微软雅黑" text-anchor="middle" font-size="13px" width="52px" fill="#323232" font-weight="400" align="top" lineHeight="16px" anchor="middle" family="微软雅黑" size="13px" weight="400" font-style="" opacity="1" y="144.34027777777783" transform="rotate(0)"><tspan id="SvgjsTspan1175" dy="16" x="588.1444444444444"><tspan id="SvgjsTspan1176" style="text-decoration:;">开始算法</tspan></tspan></text></g><g id="SvgjsG1177"><path id="SvgjsPath1178" d="M472.02640923393807 84.6319444444448L472.02640923393807 55.6319444444448L236.8764295789893 55.6319444444448L236.8764295789893 82.03194444444489" stroke="#323232" stroke-width="2" fill="none" marker-end="url(#SvgjsMarker1179)"></path><rect id="SvgjsRect1181" width="26" height="16" x="342.75141940646364" y="47.6319444444448" fill="#ffffff"></rect><text id="SvgjsText1182" font-family="微软雅黑" text-anchor="middle" font-size="13px" width="26px" fill="#323232" font-weight="400" align="top" lineHeight="16px" anchor="middle" family="微软雅黑" size="13px" weight="400" font-style="" opacity="1" y="45.0069444444448" transform="rotate(0)"><tspan id="SvgjsTspan1183" dy="16" x="355.75141940646364"><tspan id="SvgjsTspan1184" style="text-decoration:;">返回</tspan></tspan></text></g></svg>